<svg xmlns="http://www.w3.org/2000/svg" width="47" height="47" fill="none" viewBox="0 0 47 47"><circle cx="23.15" cy="23.15" r="23.15" fill="#D6E8FF"/><ellipse cx="20.534" cy="22.569" fill="#65A7FE" fill-opacity=".5" rx="9.745" ry="4.263"/><path fill="#65A7FE" fill-opacity=".5" fill-rule="evenodd" d="M29.8748 25.6146C28.6768 27.3756 24.9481 28.6597 20.5337 28.6597C16.1194 28.6597 12.3907 27.3756 11.1927 25.6146C10.9302 26.0005 10.7892 26.4094 10.7892 26.8326C10.7892 29.1872 15.152 31.0959 20.5337 31.0959C25.9155 31.0959 30.2783 29.1872 30.2783 26.8326C30.2783 26.4094 30.1373 26.0005 29.8748 25.6146Z" clip-rule="evenodd"/><path fill="#65A7FE" fill-opacity=".5" fill-rule="evenodd" d="M29.8748 29.6211C28.6768 31.3821 24.9481 32.6663 20.5337 32.6663C16.1194 32.6663 12.3907 31.3821 11.1927 29.6211C10.9302 30.007 10.7892 30.4159 10.7892 30.8392C10.7892 33.1937 15.152 35.1024 20.5337 35.1024C25.9155 35.1024 30.2783 33.1937 30.2783 30.8392C30.2783 30.4159 30.1373 30.007 29.8748 29.6211Z" clip-rule="evenodd"/><circle cx="31.542" cy="18.502" r="7.304" fill="#65A7FE"/><path stroke="#D6E8FF" d="M31.5422 13.825V19.2046L34.0391 21.7014"/></svg>